<svg width="420" height="215" viewBox="0 0 420 215" fill="none" xmlns="http://www.w3.org/2000/svg">
<path d="M632.829 7.22339C520.986 20.4929 345.636 47.3471 434.843 132.119C548.366 239.997 825.779 211.736 702.57 295" stroke="white" stroke-opacity="0.14"/>
<path d="M592.845 5.96655C481.001 19.2361 305.651 46.0903 394.858 130.862C508.381 238.741 785.794 210.479 662.585 293.743" stroke="white" stroke-opacity="0.14"/>
<path d="M552.86 2.19678C441.016 15.4663 265.666 42.3205 354.874 127.092C468.396 234.971 745.809 206.71 622.6 289.973" stroke="white" stroke-opacity="0.14"/>
<path d="M513.373 -2.82996C402.084 10.4396 227.602 37.2938 316.367 122.066C429.328 229.944 705.367 201.683 582.769 284.947" stroke="white" stroke-opacity="0.14"/>
<path d="M474.489 -7.85669C362.646 5.41284 187.296 32.2671 276.503 117.039C390.025 224.917 667.438 196.656 544.23 279.92" stroke="white" stroke-opacity="0.14"/>
<path d="M435.003 -12.8833C323.713 0.386233 149.231 27.2405 237.997 112.012C350.957 219.891 626.997 191.63 504.398 274.893" stroke="white" stroke-opacity="0.14"/>
<path d="M395.018 -17.91C283.729 -4.6405 109.247 22.2137 198.012 106.986C310.973 214.864 587.012 186.603 464.414 269.867" stroke="white" stroke-opacity="0.14"/>
<path d="M356.135 -22.9366C244.291 -9.66711 68.9413 17.1871 158.148 101.959C271.671 209.837 549.084 181.576 425.875 264.84" stroke="white" stroke-opacity="0.14"/>
<path d="M316.149 -26.7065C204.305 -13.437 28.9554 13.4172 118.163 98.1891C231.685 206.067 509.098 177.806 385.889 261.07" stroke="white" stroke-opacity="0.14"/>
<path d="M276.663 -29.22C165.373 -15.9504 -9.10874 10.9038 79.6568 95.6757C192.617 203.554 468.657 175.293 346.058 258.557" stroke="white" stroke-opacity="0.14"/>
<path d="M236.678 -31.7333C125.388 -18.4637 -49.0936 8.39047 39.6719 93.1624C152.632 201.041 428.672 172.78 306.073 256.043" stroke="white" stroke-opacity="0.14"/>
<path d="M196.693 -34.2467C85.4033 -20.9772 -89.0785 5.87705 -0.312945 90.649C112.647 198.527 388.687 170.266 266.089 253.53" stroke="white" stroke-opacity="0.14"/>
<path d="M156.708 -35.5033C45.4185 -22.2338 -129.063 4.62046 -40.2978 89.3924C72.6626 197.271 348.702 169.01 226.104 252.273" stroke="white" stroke-opacity="0.14"/>
<path d="M116.723 -35.5033C5.4336 -22.2338 -169.048 4.62046 -80.2827 89.3924C32.6777 197.271 308.717 169.01 186.119 252.273" stroke="white" stroke-opacity="0.14"/>
<path d="M77.8396 -36.76C-34.0038 -23.4905 -209.354 3.36374 -120.147 88.1357C-6.62414 196.014 270.789 167.753 147.58 251.017" stroke="white" stroke-opacity="0.14"/>
<path d="M37.8548 -35.5033C-73.9886 -22.2338 -249.339 4.62046 -160.131 89.3924C-46.609 197.271 230.804 169.01 107.595 252.273" stroke="white" stroke-opacity="0.14"/>
<path d="M-2.13009 -34.2467C-113.974 -20.9772 -289.323 5.87705 -200.116 90.649C-86.5939 198.527 190.819 170.266 67.6106 253.53" stroke="white" stroke-opacity="0.14"/>
<path d="M-42.1145 -31.7333C-153.958 -18.4637 -329.308 8.39047 -240.101 93.1624C-126.578 201.041 150.835 172.78 27.6262 256.043" stroke="white" stroke-opacity="0.14"/>
<path d="M-82.0998 -29.22C-193.943 -15.9504 -369.293 10.9038 -280.086 95.6757C-166.564 203.554 110.849 175.293 -12.3591 258.557" stroke="white" stroke-opacity="0.14"/>
</svg>
