<svg width="33" height="34" viewBox="0 0 33 34" fill="none" xmlns="http://www.w3.org/2000/svg">
<path opacity="0.5" d="M18.7396 28.4635L17.9942 29.7229C17.3298 30.8453 15.6702 30.8453 15.0058 29.7229L14.2604 28.4635C13.6823 27.4867 13.3932 26.9985 12.9288 26.7283C12.4645 26.4582 11.8799 26.4482 10.7107 26.4281C8.98455 26.3983 7.90197 26.2926 6.99405 25.9165C5.30948 25.2187 3.9711 23.8804 3.27332 22.1957C2.75 20.9324 2.75 19.3307 2.75 16.1273V14.7523C2.75 10.2514 2.75 8.00086 3.7631 6.34765C4.32998 5.42257 5.10775 4.6448 6.03283 4.07792C7.68604 3.06482 9.93653 3.06482 14.4375 3.06482H18.5625C23.0634 3.06482 25.3139 3.06482 26.9672 4.07792C27.8923 4.6448 28.67 5.42257 29.2369 6.34765C30.25 8.00086 30.25 10.2514 30.25 14.7523V16.1273C30.25 19.3307 30.25 20.9324 29.7267 22.1957C29.0289 23.8804 27.6906 25.2187 26.0059 25.9165C25.098 26.2926 24.0155 26.3983 22.2893 26.4281C21.12 26.4482 20.5355 26.4582 20.0711 26.7283C19.6068 26.9983 19.3176 27.4867 18.7396 28.4635Z" fill="#1C274C"/>
<path d="M15.1114 19.9886C13.287 18.6441 10.3125 16.0825 10.3125 13.6726C10.3125 9.99151 13.7157 8.61717 16.5 11.4608C19.2842 8.61717 22.6875 9.99151 22.6875 13.6726C22.6875 16.0825 19.713 18.6441 17.8886 19.9886C17.2642 20.4489 16.952 20.679 16.5 20.679C16.048 20.679 15.7358 20.4489 15.1114 19.9886Z" fill="#1C274C"/>
</svg>
