<svg width="33" height="34" viewBox="0 0 33 34" fill="none" xmlns="http://www.w3.org/2000/svg">
<path opacity="0.5" d="M28.875 22.3125V14.0624C28.875 10.1733 28.875 8.2288 27.6668 7.02061C26.6102 5.96409 24.9906 5.83147 22 5.81482H11C8.00933 5.83147 6.38971 5.96409 5.33318 7.02061C4.125 8.2288 4.125 10.1733 4.125 14.0624V22.3125C4.125 26.2015 4.125 28.1461 5.33318 29.3543C6.54137 30.5625 8.48591 30.5625 12.375 30.5625H20.625C24.514 30.5625 26.4586 30.5625 27.6668 29.3543C28.875 28.1461 28.875 26.2015 28.875 22.3125Z" fill="#1C274C"/>
<path d="M11 5.12732C11 3.98823 11.9234 3.06482 13.0625 3.06482H19.9375C21.0766 3.06482 22 3.98823 22 5.12732V6.50232C22 7.64141 21.0766 8.56482 19.9375 8.56482H13.0625C11.9234 8.56482 11 7.64141 11 6.50232V5.12732Z" fill="#1C274C"/>
<path fill-rule="evenodd" clip-rule="evenodd" d="M16.5 13.0336C17.0695 13.0336 17.5312 13.4953 17.5312 14.0648V17.1586H20.625C21.1945 17.1586 21.6562 17.6203 21.6562 18.1898C21.6562 18.7593 21.1945 19.2211 20.625 19.2211H17.5312V22.3148C17.5312 22.8843 17.0695 23.3461 16.5 23.3461C15.9305 23.3461 15.4687 22.8843 15.4687 22.3148V19.2211H12.375C11.8055 19.2211 11.3438 18.7593 11.3438 18.1898C11.3438 17.6203 11.8055 17.1586 12.375 17.1586H15.4687V14.0648C15.4687 13.4953 15.9305 13.0336 16.5 13.0336Z" fill="#1C274C"/>
</svg>
