<svg width="33" height="34" viewBox="0 0 33 34" fill="none" xmlns="http://www.w3.org/2000/svg">
<path d="M30.25 5.81482V9.93982C30.25 10.6692 29.9603 11.3686 29.4445 11.8844C28.9288 12.4001 28.2293 12.6898 27.5 12.6898H20.625C19.8957 12.6898 19.1962 12.4001 18.6805 11.8844C18.1647 11.3686 17.875 10.6692 17.875 9.93982V5.81482C17.875 5.08547 18.1647 4.386 18.6805 3.87028C19.1962 3.35455 19.8957 3.06482 20.625 3.06482H27.5C28.2293 3.06482 28.9288 3.35455 29.4445 3.87028C29.9603 4.386 30.25 5.08547 30.25 5.81482ZM12.375 20.9398H5.5C4.77065 20.9398 4.07118 21.2295 3.55546 21.7453C3.03973 22.261 2.75 22.9605 2.75 23.6898V27.8148C2.75 28.5442 3.03973 29.2436 3.55546 29.7594C4.07118 30.2751 4.77065 30.5648 5.5 30.5648H12.375C13.1043 30.5648 13.8038 30.2751 14.3195 29.7594C14.8353 29.2436 15.125 28.5442 15.125 27.8148V23.6898C15.125 22.9605 14.8353 22.261 14.3195 21.7453C13.8038 21.2295 13.1043 20.9398 12.375 20.9398Z" fill="#1C274C"/>
<path d="M15.125 5.81482V15.4398C15.125 16.1692 14.8353 16.8686 14.3195 17.3844C13.8038 17.9001 13.1043 18.1898 12.375 18.1898H5.5C4.77065 18.1898 4.07118 17.9001 3.55546 17.3844C3.03973 16.8686 2.75 16.1692 2.75 15.4398V5.81482C2.75 5.08547 3.03973 4.386 3.55546 3.87028C4.07118 3.35455 4.77065 3.06482 5.5 3.06482H12.375C13.1043 3.06482 13.8038 3.35455 14.3195 3.87028C14.8353 4.386 15.125 5.08547 15.125 5.81482ZM27.5 15.4398H20.625C19.8957 15.4398 19.1962 15.7296 18.6805 16.2453C18.1647 16.761 17.875 17.4605 17.875 18.1898V27.8148C17.875 28.5442 18.1647 29.2436 18.6805 29.7594C19.1962 30.2751 19.8957 30.5648 20.625 30.5648H27.5C28.2293 30.5648 28.9288 30.2751 29.4445 29.7594C29.9603 29.2436 30.25 28.5442 30.25 27.8148V18.1898C30.25 17.4605 29.9603 16.761 29.4445 16.2453C28.9288 15.7296 28.2293 15.4398 27.5 15.4398Z" fill="#1C274C"/>
</svg>
