<svg width="420" height="242" viewBox="0 0 420 242" fill="none" xmlns="http://www.w3.org/2000/svg">
<rect width="420" height="215" rx="12" fill="#4EB7F2"/>
<mask id="mask0_5_504" style="mask-type:alpha" maskUnits="userSpaceOnUse" x="0" y="0" width="420" height="215">
<rect width="420" height="215" rx="12" fill="#396B5F"/>
</mask>
<g mask="url(#mask0_5_504)">
<g filter="url(#filter0_f_5_504)">
<ellipse cx="324.896" cy="32.5" rx="290.812" ry="228.5" fill="white" fill-opacity="0.1"/>
</g>
<ellipse cx="-11.5" cy="213" rx="187.5" ry="77" fill="black" fill-opacity="0.04"/>
<ellipse cx="410" cy="32.5" rx="115" ry="60.5" fill="black" fill-opacity="0.04"/>
<path d="M632.829 7.22339C520.986 20.4929 345.636 47.3471 434.843 132.119C548.366 239.997 825.779 211.736 702.57 295" stroke="white" stroke-opacity="0.14"/>
<path d="M592.845 5.96655C481.001 19.2361 305.651 46.0903 394.858 130.862C508.381 238.741 785.794 210.479 662.585 293.743" stroke="white" stroke-opacity="0.14"/>
<path d="M552.86 2.19678C441.016 15.4663 265.666 42.3205 354.874 127.092C468.396 234.971 745.809 206.71 622.6 289.973" stroke="white" stroke-opacity="0.14"/>
<path d="M513.373 -2.82996C402.084 10.4396 227.602 37.2938 316.367 122.066C429.328 229.944 705.367 201.683 582.769 284.947" stroke="white" stroke-opacity="0.14"/>
<path d="M474.489 -7.85669C362.646 5.41284 187.296 32.2671 276.503 117.039C390.025 224.917 667.438 196.656 544.23 279.92" stroke="white" stroke-opacity="0.14"/>
<path d="M435.003 -12.8833C323.713 0.386233 149.231 27.2405 237.997 112.012C350.957 219.891 626.997 191.63 504.398 274.893" stroke="white" stroke-opacity="0.14"/>
<path d="M395.018 -17.91C283.729 -4.6405 109.247 22.2137 198.012 106.986C310.973 214.864 587.012 186.603 464.414 269.867" stroke="white" stroke-opacity="0.14"/>
<path d="M356.135 -22.9366C244.291 -9.66711 68.9413 17.1871 158.148 101.959C271.671 209.837 549.084 181.576 425.875 264.84" stroke="white" stroke-opacity="0.14"/>
<path d="M316.149 -26.7065C204.305 -13.437 28.9554 13.4172 118.163 98.1891C231.685 206.067 509.098 177.806 385.889 261.07" stroke="white" stroke-opacity="0.14"/>
<path d="M276.663 -29.22C165.373 -15.9504 -9.10874 10.9038 79.6568 95.6757C192.617 203.554 468.657 175.293 346.058 258.557" stroke="white" stroke-opacity="0.14"/>
<path d="M236.678 -31.7333C125.388 -18.4637 -49.0936 8.39047 39.6719 93.1624C152.632 201.041 428.672 172.78 306.073 256.043" stroke="white" stroke-opacity="0.14"/>
<path d="M196.693 -34.2467C85.4033 -20.9772 -89.0785 5.87705 -0.312945 90.649C112.647 198.527 388.687 170.266 266.089 253.53" stroke="white" stroke-opacity="0.14"/>
<path d="M156.708 -35.5033C45.4185 -22.2338 -129.063 4.62046 -40.2978 89.3924C72.6626 197.271 348.702 169.01 226.104 252.273" stroke="white" stroke-opacity="0.14"/>
<path d="M116.723 -35.5033C5.4336 -22.2338 -169.048 4.62046 -80.2827 89.3924C32.6777 197.271 308.717 169.01 186.119 252.273" stroke="white" stroke-opacity="0.14"/>
<path d="M77.8396 -36.76C-34.0038 -23.4905 -209.354 3.36374 -120.147 88.1357C-6.62414 196.014 270.789 167.753 147.58 251.017" stroke="white" stroke-opacity="0.14"/>
<path d="M37.8548 -35.5033C-73.9886 -22.2338 -249.339 4.62046 -160.131 89.3924C-46.609 197.271 230.804 169.01 107.595 252.273" stroke="white" stroke-opacity="0.14"/>
<path d="M-2.13009 -34.2467C-113.974 -20.9772 -289.323 5.87705 -200.116 90.649C-86.5939 198.527 190.819 170.266 67.6106 253.53" stroke="white" stroke-opacity="0.14"/>
<path d="M-42.1145 -31.7333C-153.958 -18.4637 -329.308 8.39047 -240.101 93.1624C-126.578 201.041 150.835 172.78 27.6262 256.043" stroke="white" stroke-opacity="0.14"/>
<path d="M-82.0998 -29.22C-193.943 -15.9504 -369.293 10.9038 -280.086 95.6757C-166.564 203.554 110.849 175.293 -12.3591 258.557" stroke="white" stroke-opacity="0.14"/>
</g>
<path d="M37.336 36.096C35.9067 36.096 34.7813 35.6853 33.96 34.864C33.1387 34.0427 32.728 32.8267 32.728 31.216V24.8H33.912V31.168C33.912 32.4907 34.2107 33.4667 34.808 34.096C35.4053 34.7253 36.248 35.04 37.336 35.04C38.4347 35.04 39.2827 34.7253 39.88 34.096C40.4773 33.4667 40.776 32.4907 40.776 31.168V24.8H41.928V31.216C41.928 32.8267 41.5173 34.0427 40.696 34.864C39.8853 35.6853 38.7653 36.096 37.336 36.096ZM44.3439 36V35.248L49.9439 28.16L50.1839 28.544H44.4399V27.6H51.0799V28.336L45.4959 35.44L45.2079 35.056H51.1919V36H44.3439ZM56.7751 36.08C55.9431 36.08 55.1965 35.8987 54.5351 35.536C53.8845 35.1627 53.3725 34.656 52.9991 34.016C52.6258 33.3653 52.4391 32.624 52.4391 31.792C52.4391 30.9493 52.6258 30.208 52.9991 29.568C53.3725 28.928 53.8845 28.4267 54.5351 28.064C55.1965 27.7013 55.9431 27.52 56.7751 27.52C57.4898 27.52 58.1351 27.6587 58.7111 27.936C59.2871 28.2133 59.7405 28.6293 60.0711 29.184L59.2231 29.76C58.9351 29.3333 58.5778 29.0187 58.1511 28.816C57.7245 28.6133 57.2605 28.512 56.7591 28.512C56.1618 28.512 55.6231 28.6507 55.1431 28.928C54.6631 29.1947 54.2845 29.5733 54.0071 30.064C53.7298 30.5547 53.5911 31.1307 53.5911 31.792C53.5911 32.4533 53.7298 33.0293 54.0071 33.52C54.2845 34.0107 54.6631 34.3947 55.1431 34.672C55.6231 34.9387 56.1618 35.072 56.7591 35.072C57.2605 35.072 57.7245 34.9707 58.1511 34.768C58.5778 34.5653 58.9351 34.256 59.2231 33.84L60.0711 34.416C59.7405 34.96 59.2871 35.376 58.7111 35.664C58.1351 35.9413 57.4898 36.08 56.7751 36.08ZM67.5668 36V34.144L67.5188 33.84V30.736C67.5188 30.0213 67.3161 29.472 66.9108 29.088C66.5161 28.704 65.9241 28.512 65.1348 28.512C64.5908 28.512 64.0734 28.6027 63.5828 28.784C63.0921 28.9653 62.6761 29.2053 62.3348 29.504L61.8228 28.656C62.2494 28.2933 62.7614 28.016 63.3588 27.824C63.9561 27.6213 64.5854 27.52 65.2468 27.52C66.3348 27.52 67.1721 27.792 67.7588 28.336C68.3561 28.8693 68.6548 29.6853 68.6548 30.784V36H67.5668ZM64.6708 36.08C64.0414 36.08 63.4921 35.9787 63.0228 35.776C62.5641 35.5627 62.2121 35.2747 61.9668 34.912C61.7214 34.5387 61.5988 34.112 61.5988 33.632C61.5988 33.1947 61.7001 32.8 61.9028 32.448C62.1161 32.0853 62.4574 31.7973 62.9268 31.584C63.4068 31.36 64.0468 31.248 64.8468 31.248H67.7428V32.096H64.8788C64.0681 32.096 63.5028 32.24 63.1828 32.528C62.8734 32.816 62.7188 33.1733 62.7188 33.6C62.7188 34.08 62.9054 34.464 63.2788 34.752C63.6521 35.04 64.1748 35.184 64.8468 35.184C65.4868 35.184 66.0361 35.04 66.4948 34.752C66.9641 34.4533 67.3054 34.0267 67.5188 33.472L67.7748 34.256C67.5614 34.8107 67.1881 35.2533 66.6548 35.584C66.1321 35.9147 65.4708 36.08 64.6708 36.08ZM71.7403 36V27.6H72.8283V29.888L72.7163 29.488C72.9509 28.848 73.3456 28.3627 73.9003 28.032C74.4549 27.6907 75.1429 27.52 75.9643 27.52V28.624C75.9216 28.624 75.8789 28.624 75.8363 28.624C75.7936 28.6133 75.7509 28.608 75.7083 28.608C74.8229 28.608 74.1296 28.88 73.6283 29.424C73.1269 29.9573 72.8763 30.72 72.8763 31.712V36H71.7403ZM81.303 36.08C80.503 36.08 79.783 35.8987 79.143 35.536C78.5137 35.1733 78.0177 34.672 77.655 34.032C77.2923 33.3813 77.111 32.6347 77.111 31.792C77.111 30.9387 77.2923 30.192 77.655 29.552C78.0177 28.912 78.5137 28.416 79.143 28.064C79.783 27.7013 80.503 27.52 81.303 27.52C82.039 27.52 82.695 27.6853 83.271 28.016C83.8577 28.3467 84.3217 28.832 84.663 29.472C85.015 30.1013 85.191 30.8747 85.191 31.792C85.191 32.6987 85.0203 33.472 84.679 34.112C84.3377 34.752 83.8737 35.2427 83.287 35.584C82.711 35.9147 82.0497 36.08 81.303 36.08ZM81.383 35.072C81.9803 35.072 82.5137 34.9387 82.983 34.672C83.463 34.3947 83.8363 34.0107 84.103 33.52C84.3803 33.0187 84.519 32.4427 84.519 31.792C84.519 31.1307 84.3803 30.5547 84.103 30.064C83.8363 29.5733 83.463 29.1947 82.983 28.928C82.5137 28.6507 81.9803 28.512 81.383 28.512C80.7963 28.512 80.2683 28.6507 79.799 28.928C79.3297 29.1947 78.9563 29.5733 78.679 30.064C78.4017 30.5547 78.263 31.1307 78.263 31.792C78.263 32.4427 78.4017 33.0187 78.679 33.52C78.9563 34.0107 79.3297 34.3947 79.799 34.672C80.2683 34.9387 80.7963 35.072 81.383 35.072ZM84.551 36V33.472L84.663 31.776L84.503 30.08V24.128H85.639V36H84.551Z" fill="white"/>
<rect y="234" width="32" height="8" rx="4" fill="#4EB7F2"/>
<rect x="40" y="234" width="8" height="8" rx="4" fill="#E8E8E8"/>
<rect x="56" y="234" width="8" height="8" rx="4" fill="#E8E8E8"/>
<defs>
<filter id="filter0_f_5_504" x="-65.916" y="-296" width="781.623" height="657" filterUnits="userSpaceOnUse" color-interpolation-filters="sRGB">
<feFlood flood-opacity="0" result="BackgroundImageFix"/>
<feBlend mode="normal" in="SourceGraphic" in2="BackgroundImageFix" result="shape"/>
<feGaussianBlur stdDeviation="50" result="effect1_foregroundBlur_5_504"/>
</filter>
</defs>
</svg>
