<svg width="168" height="43" viewBox="0 0 168 43" fill="none" xmlns="http://www.w3.org/2000/svg">
<rect x="3.65332" y="4.97815" width="42.0318" height="37.3367" rx="6.96951" fill="#6C5FBC"/>
<rect x="1.0075" y="1.0075" width="40.0168" height="35.3217" rx="5.96201" fill="#DBD9EE" stroke="#6C5FBC" stroke-width="2.01499"/>
<path d="M32.4419 12.0508L9.66794 11.9495" stroke="#6C5FBC" stroke-width="2.08432" stroke-linecap="round" stroke-linejoin="round"/>
<path d="M32.4276 16.636L27.3626 16.6135C25.2676 16.6042 23.5732 14.5421 23.5809 12.0112C23.5887 9.48022 25.2956 7.43325 27.3906 7.44257L32.4556 7.46509" stroke="#6C5FBC" stroke-width="2.08432" stroke-linecap="round" stroke-linejoin="round"/>
<path d="M17.2645 26.722L10.6472 26.6479C10.105 26.6455 9.65064 26.1075 9.64032 25.4524L9.59628 23.7253C9.58605 23.0404 10.0438 22.4619 10.6106 22.4644L17.154 22.5381L17.2645 26.722Z" stroke="#6C5FBC" stroke-width="2.08432" stroke-linecap="round" stroke-linejoin="round"/>
<path d="M27.6588 29.2102L18.3054 29.0941C17.7632 29.0917 17.3088 28.5538 17.2985 27.8986L17.1793 22.5235L32.3739 22.7101L32.3842 23.3951C32.4605 26.641 30.3329 29.2518 27.6588 29.2102Z" stroke="#6C5FBC" stroke-width="2.08432" stroke-linecap="round" stroke-linejoin="round"/>
<path d="M60.1816 18.0457C60.5204 17.3822 61.0004 16.8669 61.6215 16.4999C62.2568 16.1328 63.0262 15.9493 63.9297 15.9493V17.9398H63.4215C61.2615 17.9398 60.1816 19.1115 60.1816 21.455V27.7654H58.2546V16.161H60.1816V18.0457ZM76.742 21.5185C76.742 21.8856 76.7208 22.2738 76.6785 22.6832H67.4035C67.4741 23.8267 67.8623 24.7231 68.5682 25.3725C69.2881 26.0078 70.1563 26.3254 71.1728 26.3254C72.0057 26.3254 72.6974 26.1348 73.248 25.7537C73.8127 25.3584 74.208 24.8361 74.4339 24.1867H76.5091C76.1985 25.3019 75.5773 26.2125 74.6456 26.9183C73.7139 27.6101 72.5563 27.956 71.1728 27.956C70.0716 27.956 69.0834 27.7089 68.2082 27.2148C67.347 26.7207 66.6694 26.0219 66.1753 25.1184C65.6812 24.2008 65.4341 23.142 65.4341 21.942C65.4341 20.7421 65.6741 19.6903 66.1541 18.7868C66.6341 17.8833 67.3047 17.1916 68.1658 16.7116C69.0411 16.2175 70.0434 15.9705 71.1728 15.9705C72.2739 15.9705 73.248 16.2105 74.095 16.6904C74.9421 17.1704 75.5915 17.8339 76.0432 18.681C76.5091 19.5139 76.742 20.4597 76.742 21.5185ZM74.7515 21.1162C74.7515 20.3821 74.5891 19.7539 74.2644 19.2315C73.9398 18.6951 73.4951 18.2927 72.9304 18.0245C72.3798 17.7422 71.7657 17.601 71.0881 17.601C70.114 17.601 69.2811 17.9116 68.5893 18.5327C67.9117 19.1539 67.5235 20.015 67.4247 21.1162H74.7515ZM83.3937 27.956C82.5043 27.956 81.7067 27.8077 81.0008 27.5113C80.295 27.2007 79.7373 26.7772 79.3279 26.2407C78.9185 25.6902 78.6927 25.0619 78.6503 24.3561H80.6408C80.6973 24.9349 80.9655 25.4078 81.4455 25.7749C81.9396 26.1419 82.582 26.3254 83.3725 26.3254C84.1066 26.3254 84.6854 26.1631 85.1089 25.8384C85.5325 25.5137 85.7442 25.1043 85.7442 24.6102C85.7442 24.102 85.5183 23.7279 85.0666 23.4879C84.6148 23.2338 83.916 22.9867 82.9702 22.7467C82.109 22.5208 81.4032 22.295 80.8526 22.0691C80.3161 21.8291 79.8503 21.4832 79.455 21.0315C79.0738 20.5656 78.8833 19.9586 78.8833 19.2104C78.8833 18.6174 79.0597 18.0739 79.4126 17.5798C79.7656 17.0857 80.2667 16.6975 80.9161 16.4152C81.5655 16.1187 82.3067 15.9705 83.1396 15.9705C84.4243 15.9705 85.4619 16.2952 86.2524 16.9446C87.043 17.5939 87.4665 18.4833 87.523 19.6127H85.596C85.5536 19.0057 85.3066 18.5186 84.8548 18.1516C84.4172 17.7845 83.8243 17.601 83.0761 17.601C82.3843 17.601 81.8337 17.7492 81.4243 18.0457C81.0149 18.3422 80.8102 18.7304 80.8102 19.2104C80.8102 19.5915 80.9302 19.9092 81.1702 20.1633C81.4243 20.4033 81.7349 20.6009 82.102 20.7562C82.4831 20.8974 83.0055 21.0597 83.669 21.2432C84.5019 21.4691 85.1795 21.695 85.7019 21.9209C86.2242 22.1326 86.6689 22.4573 87.0359 22.8949C87.4171 23.3326 87.6147 23.9043 87.6289 24.6102C87.6289 25.2455 87.4524 25.8172 87.0995 26.3254C86.7465 26.8336 86.2454 27.236 85.596 27.5324C84.9607 27.8148 84.2266 27.956 83.3937 27.956ZM92.6996 17.7492V24.589C92.6996 25.1537 92.8196 25.556 93.0596 25.796C93.2996 26.0219 93.7161 26.1348 94.309 26.1348H95.7278V27.7654H93.9914C92.9184 27.7654 92.1138 27.5183 91.5773 27.0242C91.0409 26.5301 90.7726 25.7184 90.7726 24.589V17.7492H89.2691V16.161H90.7726V13.2388H92.6996V16.161H95.7278V17.7492H92.6996ZM97.3426 21.9209C97.3426 20.735 97.5826 19.6974 98.0626 18.808C98.5425 17.9045 99.199 17.2057 100.032 16.7116C100.879 16.2175 101.818 15.9705 102.848 15.9705C103.865 15.9705 104.747 16.1893 105.495 16.6269C106.243 17.0645 106.801 17.6151 107.168 18.2786V16.161H109.116V27.7654H107.168V25.6055C106.787 26.2831 106.215 26.8478 105.453 27.2995C104.705 27.7371 103.829 27.956 102.827 27.956C101.797 27.956 100.865 27.7019 100.032 27.1936C99.199 26.6854 98.5425 25.9725 98.0626 25.0549C97.5826 24.1373 97.3426 23.0926 97.3426 21.9209ZM107.168 21.942C107.168 21.0668 106.992 20.3044 106.639 19.6551C106.286 19.0057 105.806 18.5116 105.199 18.1727C104.606 17.8198 103.949 17.6434 103.229 17.6434C102.509 17.6434 101.853 17.8128 101.26 18.1516C100.667 18.4904 100.194 18.9845 99.8413 19.6339C99.4884 20.2833 99.3119 21.0456 99.3119 21.9209C99.3119 22.8102 99.4884 23.5867 99.8413 24.2502C100.194 24.8996 100.667 25.4008 101.26 25.7537C101.853 26.0925 102.509 26.2619 103.229 26.2619C103.949 26.2619 104.606 26.0925 105.199 25.7537C105.806 25.4008 106.286 24.8996 106.639 24.2502C106.992 23.5867 107.168 22.8173 107.168 21.942ZM122.664 16.161V27.7654H120.737V26.0501C120.37 26.6431 119.855 27.1089 119.191 27.4477C118.542 27.7724 117.822 27.9348 117.031 27.9348C116.128 27.9348 115.316 27.7513 114.596 27.3842C113.876 27.0031 113.304 26.4384 112.881 25.6902C112.472 24.9419 112.267 24.0314 112.267 22.9585V16.161H114.173V22.7044C114.173 23.8479 114.462 24.7302 115.041 25.3513C115.62 25.9584 116.41 26.2619 117.413 26.2619C118.443 26.2619 119.255 25.9443 119.848 25.309C120.441 24.6737 120.737 23.749 120.737 22.535V16.161H122.664ZM127.845 18.0457C128.184 17.3822 128.664 16.8669 129.285 16.4999C129.92 16.1328 130.689 15.9493 131.593 15.9493V17.9398H131.085C128.925 17.9398 127.845 19.1115 127.845 21.455V27.7654H125.918V16.161H127.845V18.0457ZM133.097 21.9209C133.097 20.735 133.337 19.6974 133.817 18.808C134.297 17.9045 134.954 17.2057 135.787 16.7116C136.634 16.2175 137.573 15.9705 138.603 15.9705C139.62 15.9705 140.502 16.1893 141.25 16.6269C141.998 17.0645 142.556 17.6151 142.923 18.2786V16.161H144.871V27.7654H142.923V25.6055C142.542 26.2831 141.97 26.8478 141.208 27.2995C140.46 27.7371 139.584 27.956 138.582 27.956C137.551 27.956 136.62 27.7019 135.787 27.1936C134.954 26.6854 134.297 25.9725 133.817 25.0549C133.337 24.1373 133.097 23.0926 133.097 21.9209ZM142.923 21.942C142.923 21.0668 142.747 20.3044 142.394 19.6551C142.041 19.0057 141.561 18.5116 140.954 18.1727C140.361 17.8198 139.704 17.6434 138.984 17.6434C138.264 17.6434 137.608 17.8128 137.015 18.1516C136.422 18.4904 135.949 18.9845 135.596 19.6339C135.243 20.2833 135.067 21.0456 135.067 21.9209C135.067 22.8102 135.243 23.5867 135.596 24.2502C135.949 24.8996 136.422 25.4008 137.015 25.7537C137.608 26.0925 138.264 26.2619 138.984 26.2619C139.704 26.2619 140.361 26.0925 140.954 25.7537C141.561 25.4008 142.041 24.8996 142.394 24.2502C142.747 23.5867 142.923 22.8173 142.923 21.942ZM153.782 15.9493C155.193 15.9493 156.337 16.3799 157.212 17.241C158.087 18.088 158.525 19.3162 158.525 20.9256V27.7654H156.619V21.2009C156.619 20.0433 156.33 19.161 155.751 18.5539C155.172 17.9328 154.382 17.6222 153.379 17.6222C152.363 17.6222 151.551 17.9398 150.944 18.5751C150.351 19.2104 150.055 20.135 150.055 21.3491V27.7654H148.128V16.161H150.055V17.8128C150.436 17.2198 150.951 16.761 151.6 16.4363C152.264 16.1116 152.991 15.9493 153.782 15.9493ZM164.023 17.7492V24.589C164.023 25.1537 164.143 25.556 164.383 25.796C164.623 26.0219 165.04 26.1348 165.633 26.1348H167.051V27.7654H165.315C164.242 27.7654 163.437 27.5183 162.901 27.0242C162.364 26.5301 162.096 25.7184 162.096 24.589V17.7492H160.593V16.161H162.096V13.2388H164.023V16.161H167.051V17.7492H164.023Z" fill="#6C5FBC"/>
</svg>
