<svg width="33" height="34" viewBox="0 0 33 34" fill="none" xmlns="http://www.w3.org/2000/svg">
<path d="M15.2381 27.1356H17.5164L17.6022 22.7584H15.1528L15.2381 27.1356Z" fill="#1C274C"/>
<path d="M26.7879 17.1351H24.0439L23.8296 20.9272H26.4552L26.7879 17.1351Z" fill="#1C274C"/>
<path d="M25.9511 26.661L26.2939 22.7584H23.7255L23.478 27.1356H25.4326C25.702 27.1356 25.9269 26.9296 25.9511 26.661Z" fill="#1C274C"/>
<path d="M22.2069 17.1351H19.5493L19.4741 20.9272H21.9926L22.2069 17.1351Z" fill="#1C274C"/>
<path d="M21.8895 22.7584H19.4389L19.353 27.1356H21.6421L21.8895 22.7584Z" fill="#1C274C"/>
<path d="M17.6383 20.9272L17.713 17.1351H15.0425L15.1165 20.9272H17.6383Z" fill="#1C274C"/>
<path d="M11.1138 27.1356H13.4022L13.3164 22.7584H10.8652L11.1138 27.1356Z" fill="#1C274C"/>
<path d="M13.2802 20.9272L13.2061 17.1351H10.5474L10.7622 20.9272H13.2802Z" fill="#1C274C"/>
<path d="M6.80412 26.661C6.8272 26.9297 7.05272 27.1356 7.322 27.1356H9.27609L9.02924 22.7585H6.46143L6.80412 26.661Z" fill="#1C274C"/>
<path d="M8.92562 20.9272L8.71131 17.1351H5.96729L6.30057 20.9272H8.92562Z" fill="#1C274C"/>
<path d="M31.3141 11.4064H27.9036H25.1809H22.2052L27.2528 7.69019L27.2522 7.68903C27.5816 7.45674 27.839 7.15381 28.0118 6.81607C28.188 6.47157 28.2789 6.09124 28.2795 5.70639C28.2795 5.23059 28.1375 4.74474 27.8469 4.32509L27.8475 4.32561L27.6197 3.99632L27.6186 3.99574C27.3852 3.65742 27.0755 3.39374 26.7304 3.21759C26.386 3.04144 26.0062 2.95056 25.6213 2.95056C25.145 2.94998 24.6592 3.09197 24.2406 3.38311L24.2311 3.38872L14.2048 10.7708L14.2059 10.7714C13.9563 10.9475 13.7482 11.1641 13.5865 11.4064H7.81913H5.09586H1.6859C0.754617 11.4064 0 12.161 0 13.0923V13.8834C0 14.7827 0.705182 15.516 1.59328 15.5642L3.2242 27.5978H3.22478C3.3252 28.4697 3.74492 29.2411 4.35755 29.7898C4.97469 30.3441 5.79434 30.679 6.68076 30.679H26.074C26.9598 30.679 27.7801 30.3441 28.3973 29.7898C29.0099 29.2411 29.4296 28.4697 29.5305 27.5978L31.1614 15.5693H31.314C32.2448 15.5693 32.9999 14.8141 32.9999 13.8834V13.0923C33 12.161 32.2449 11.4064 31.3141 11.4064ZM14.9156 12.3972C14.9728 12.2878 15.0536 12.1919 15.1647 12.1144L15.1759 12.1072L25.1831 4.73914C25.32 4.64542 25.4692 4.60224 25.6213 4.60224C25.7453 4.60224 25.8686 4.63144 25.978 4.68809C26.088 4.74416 26.1845 4.8255 26.2619 4.93662L26.2608 4.93604L26.4891 5.2654V5.26598C26.584 5.40339 26.6271 5.55266 26.6277 5.70639C26.6277 5.82975 26.5985 5.95318 26.5419 6.06313C26.4846 6.17315 26.4039 6.26958 26.2927 6.34647L26.2838 6.35266L16.2751 13.7218C16.1382 13.8156 15.989 13.8587 15.8363 13.8593C15.7129 13.8593 15.5895 13.8295 15.4795 13.7729C15.3696 13.7167 15.2742 13.6348 15.1968 13.5244L14.9685 13.195V13.1956C14.8736 13.0581 14.831 12.9083 14.8305 12.7546C14.8304 12.6312 14.8595 12.5072 14.9156 12.3972ZM27.8923 27.388L27.8912 27.3976C27.8401 27.8632 27.6207 28.2672 27.2943 28.56C26.9672 28.8523 26.5425 29.0268 26.074 29.0274H6.68082C6.21296 29.0274 5.78705 28.8523 5.4606 28.56C5.13459 28.2672 4.91468 27.8632 4.86363 27.3976L4.86254 27.3891L4.86138 27.3762L3.28601 15.7566H29.4689L27.8923 27.388Z" fill="#1C274C"/>
</svg>
