<svg width="33" height="34" viewBox="0 0 33 34" fill="none" xmlns="http://www.w3.org/2000/svg">
<path d="M22 8.56482C22 11.6024 19.5375 14.0648 16.5 14.0648C13.4624 14.0648 11 11.6024 11 8.56482C11 5.52725 13.4624 3.06482 16.5 3.06482C19.5375 3.06482 22 5.52725 22 8.56482Z" fill="black"/>
<path opacity="0.5" d="M19.9064 30.4559C18.908 30.5274 17.7782 30.5648 16.5 30.5648C5.5 30.5648 5.5 27.7946 5.5 24.3773C5.5 20.96 10.4249 18.1898 16.5 18.1898C20.4608 18.1898 23.9327 19.3674 25.8695 21.134C25.1597 20.9398 24.1638 20.9398 22.6875 20.9398C20.4189 20.9398 19.2845 20.9398 18.5798 21.6446C17.875 22.3493 17.875 23.4837 17.875 25.7523C17.875 28.0209 17.875 29.1553 18.5798 29.86C18.9064 30.1867 19.3252 30.3619 19.9064 30.4559Z" fill="black"/>
<path fill-rule="evenodd" clip-rule="evenodd" d="M22.6875 30.5648C20.4189 30.5648 19.2845 30.5648 18.5798 29.86C17.875 29.1553 17.875 28.0209 17.875 25.7523C17.875 23.4837 17.875 22.3493 18.5798 21.6446C19.2845 20.9398 20.4189 20.9398 22.6875 20.9398C24.9561 20.9398 26.0905 20.9398 26.7952 21.6446C27.5 22.3493 27.5 23.4837 27.5 25.7523C27.5 28.0209 27.5 29.1553 26.7952 29.86C26.0905 30.5648 24.9561 30.5648 22.6875 30.5648ZM23.4895 23.6134C23.4895 23.1705 23.1305 22.8113 22.6875 22.8113C22.2445 22.8113 21.8855 23.1705 21.8855 23.6134V24.9503H20.5485C20.1057 24.9503 19.7465 25.3093 19.7465 25.7523C19.7465 26.1953 20.1057 26.5544 20.5485 26.5544H21.8855V27.8913C21.8855 28.3342 22.2445 28.6933 22.6875 28.6933C23.1305 28.6933 23.4895 28.3342 23.4895 27.8913V26.5544H24.8264C25.2693 26.5544 25.6285 26.1953 25.6285 25.7523C25.6285 25.3093 25.2693 24.9503 24.8264 24.9503H23.4895V23.6134Z" fill="black"/>
</svg>
